<svg width="580" height="580" viewBox="0 0 580 580" fill="none" xmlns="http://www.w3.org/2000/svg">
<rect width="580" height="580" rx="290" fill="black"/>
<path d="M213.39 458C160.79 458 118 416.07 118 364.53V241H168V364.53C168 388.5 188.36 408 213.39 408C238.42 408 258.78 388.5 258.78 364.53V241H308.78V364.53C308.78 416.07 266 458 213.39 458Z" fill="white"/>
<path d="M356.39 458C303.79 458 261 416.07 261 364.53V241H311V364.53C311 388.53 331.36 408 356.39 408C362.525 408.016 368.603 406.827 374.28 404.5C382.327 401.22 389.253 395.68 394.22 388.55L435.29 417.08C424.828 432.114 410.242 443.803 393.29 450.74C381.585 455.557 369.047 458.024 356.39 458Z" fill="white"/>
<path d="M430.48 241.32H362C361.044 241.32 360.097 241.509 359.215 241.876C358.332 242.243 357.53 242.78 356.856 243.457C356.181 244.135 355.647 244.939 355.284 245.823C354.921 246.707 354.736 247.655 354.74 248.61V248.83C354.748 250.751 355.516 252.59 356.877 253.945C358.237 255.3 360.08 256.06 362 256.06H364.5V430.38C364.5 442.76 378.56 458.38 395.92 458.38C413.27 458.38 427.34 442.74 427.34 430.38V256.06H430.52C431.488 256.06 432.448 255.869 433.342 255.498C434.237 255.127 435.05 254.584 435.735 253.898C436.419 253.213 436.962 252.399 437.332 251.504C437.701 250.609 437.891 249.649 437.89 248.68C437.889 247.71 437.696 246.749 437.322 245.854C436.949 244.958 436.402 244.145 435.714 243.461C435.025 242.777 434.208 242.236 433.31 241.869C432.412 241.502 431.45 241.315 430.48 241.32Z" fill="#0366FF"/>
<path d="M341.34 310.49C339.78 327 350.78 349 373.78 345C414.96 339 426.78 336 426.78 375V432C426.78 432 461.78 405 461.78 347C459.78 290 405.12 275.51 378.78 278C357.14 280.31 343 292.91 341.34 310.49Z" fill="white"/>
<path d="M396.53 229.5C392.317 216.868 385.222 205.39 375.806 195.974C366.39 186.558 354.912 179.463 342.28 175.25C354.912 171.037 366.39 163.942 375.806 154.526C385.222 145.11 392.317 133.632 396.53 121C400.742 133.632 407.837 145.11 417.253 154.526C426.669 163.942 438.148 171.037 450.78 175.25C438.148 179.463 426.669 186.558 417.253 195.974C407.837 205.39 400.742 216.868 396.53 229.5Z" fill="#0366FF"/>
</svg>